<svg width="150" height="151" viewBox="0 0 150 151" fill="none" xmlns="http://www.w3.org/2000/svg">
<g clip-path="url(#clip0_1968_30607)">
<path d="M133.476 108.02C133.888 107.268 134.278 106.51 134.645 105.744C139.521 95.5422 139.708 83.4859 137.015 73.5552C135.837 69.2037 134.073 65.0802 131.885 61.2297C117.519 35.9817 90.2571 40.3655 79.7437 35.888C69.2302 31.4097 52.1279 25.1397 33.0644 39.1047C18.5677 49.7209 9.07192 66.8959 11.6812 85.8672C11.9662 87.9582 12.3997 90.0724 12.9914 92.1994C14.0917 96.1572 15.7312 100.17 17.9759 104.195C24.4222 115.758 39.4739 125.598 46.4954 129.69C58.2224 136.526 73.6814 136.503 89.1359 134.096C106.274 131.427 124.954 123.579 133.475 108.019L133.476 108.02Z" fill="#E6EAF6"/>
<path d="M104.83 73.1271C104.302 73.5456 104.193 74.5581 104.611 75.0854C105.03 75.6126 106.042 75.7221 106.57 75.3036C107.097 74.8851 107.206 73.8726 106.788 73.3454C106.369 72.8181 105.357 72.7086 104.83 73.1271ZM104.54 71.6796C104.77 71.5791 105.01 71.5116 105.253 71.4764L105.48 70.8276L106.609 70.9574L106.684 71.6406C106.912 71.7299 107.131 71.8499 107.332 72.0006L107.95 71.7029L108.657 72.5931L108.226 73.1286C108.327 73.3589 108.394 73.5989 108.43 73.8411L109.078 74.0684L108.948 75.1979L108.265 75.2721C108.175 75.5001 108.055 75.7184 107.905 75.9201L108.202 76.5389L107.311 77.2454L106.776 76.8149C106.546 76.9154 106.306 76.9829 106.063 77.0181L105.836 77.6669L104.707 77.5371L104.632 76.8539C104.404 76.7646 104.186 76.6439 103.984 76.4939L103.366 76.7916L102.659 75.9014L103.09 75.3659C102.989 75.1356 102.922 74.8956 102.886 74.6534L102.238 74.4261L102.368 73.2966L103.051 73.2224C103.141 72.9944 103.261 72.7761 103.411 72.5744L103.114 71.9556L104.004 71.2491L104.539 71.6796H104.54Z" fill="#B8C9E5"/>
<path d="M129.723 74.6877C128.793 76.0916 129.318 78.5831 130.722 79.5131C132.126 80.4431 134.617 79.9189 135.547 78.5149C136.477 77.1109 135.953 74.6194 134.549 73.6894C133.145 72.7594 130.653 73.2837 129.723 74.6877ZM127.914 71.4701C128.383 71.0531 128.901 70.7066 129.45 70.4344L129.489 68.7162L132.274 68.1499L132.98 69.7166C133.593 69.7526 134.205 69.8689 134.799 70.0699L136.04 68.8826L138.41 70.4524L137.802 72.0582C138.219 72.5277 138.565 73.0451 138.837 73.5949L140.555 73.6332L141.121 76.4187L139.554 77.1244C139.518 77.7364 139.402 78.3484 139.201 78.9431L140.388 80.1844L138.819 82.5544L137.213 81.9462C136.743 82.3632 136.226 82.7096 135.675 82.9811L135.637 84.6994L132.852 85.2657L132.146 83.6989C131.534 83.6629 130.922 83.5459 130.326 83.3456L129.085 84.5329L126.715 82.9631L127.323 81.3574C126.906 80.8879 126.56 80.3704 126.288 79.8206L124.57 79.7824L124.004 76.9969L125.571 76.2912C125.607 75.6792 125.723 75.0672 125.924 74.4724L124.737 73.2312L126.306 70.8611L127.912 71.4694L127.914 71.4701Z" fill="#E6EAF6"/>
<path fill-rule="evenodd" clip-rule="evenodd" d="M127.883 71.2939C128.319 70.9159 128.796 70.5964 129.299 70.3391L129.335 68.7139C129.337 68.6419 129.388 68.5811 129.458 68.5669L132.244 68.0006C132.314 67.9864 132.385 68.0224 132.415 68.0884L133.082 69.5704C133.647 69.6109 134.21 69.7189 134.76 69.8966L135.934 68.7731C135.986 68.7236 136.065 68.7161 136.125 68.7559L138.495 70.3257C138.555 70.3654 138.579 70.4412 138.554 70.5087L137.978 72.0281C138.356 72.4654 138.675 72.9416 138.933 73.4456L140.558 73.4816C140.63 73.4831 140.691 73.5341 140.705 73.6046L141.272 76.3902C141.286 76.4599 141.25 76.5311 141.184 76.5611L139.702 77.2294C139.661 77.7934 139.553 78.3566 139.376 78.9064L140.499 80.0809C140.549 80.1327 140.556 80.2121 140.516 80.2721L138.947 82.6422C138.908 82.7022 138.832 82.7269 138.765 82.7014L137.246 82.1262C136.808 82.5042 136.332 82.8229 135.828 83.0809L135.792 84.7061C135.791 84.7781 135.74 84.8389 135.669 84.8532L132.884 85.4194C132.814 85.4336 132.743 85.3977 132.713 85.3317L132.045 83.8497C131.481 83.8092 130.918 83.7012 130.368 83.5234L129.194 84.6469C129.142 84.6964 129.062 84.7039 129.002 84.6642L126.632 83.0944C126.572 83.0546 126.548 82.9789 126.574 82.9114L127.15 81.3919C126.772 80.9547 126.452 80.4784 126.195 79.9744L124.57 79.9384C124.498 79.9369 124.437 79.8859 124.423 79.8154L123.857 77.0299C123.842 76.9601 123.878 76.8889 123.944 76.8589L125.426 76.1906C125.467 75.6266 125.574 75.0641 125.752 74.5136L124.628 73.3391C124.579 73.2874 124.571 73.2079 124.611 73.1479L126.18 70.7779C126.22 70.7179 126.296 70.6931 126.362 70.7186L127.883 71.2939ZM127.86 71.6149L126.368 71.0501L124.935 73.2154L126.038 74.3674C126.077 74.4086 126.091 74.4686 126.072 74.5226C125.876 75.1046 125.762 75.7024 125.726 76.3009C125.723 76.3586 125.688 76.4089 125.636 76.4321L124.181 77.0876L124.699 79.6324L126.294 79.6677C126.351 79.6692 126.404 79.7022 126.428 79.7532C126.695 80.2909 127.033 80.7971 127.442 81.2561C127.479 81.2989 127.49 81.3597 127.47 81.4129L126.905 82.9039L129.071 84.3372L130.223 83.2346C130.264 83.1949 130.324 83.1814 130.378 83.2001C130.96 83.3966 131.558 83.5106 132.157 83.5459C132.214 83.5496 132.264 83.5841 132.288 83.6366L132.944 85.0909L135.488 84.5734L135.524 82.9782C135.525 82.9212 135.558 82.8686 135.609 82.8439C136.147 82.5777 136.653 82.2394 137.112 81.8314C137.155 81.7939 137.216 81.7826 137.269 81.8029L138.76 82.3677L140.193 80.2024L139.091 79.0497C139.052 79.0084 139.039 78.9484 139.057 78.8944C139.253 78.3124 139.367 77.7146 139.403 77.1161C139.406 77.0584 139.441 77.0081 139.493 76.9849L140.948 76.3294L140.43 73.7846L138.835 73.7494C138.778 73.7479 138.726 73.7156 138.701 73.6639C138.434 73.1261 138.096 72.6199 137.687 72.1609C137.65 72.1181 137.639 72.0574 137.659 72.0041L138.224 70.5132L136.058 69.0799L134.906 70.1824C134.864 70.2221 134.804 70.2356 134.75 70.2169C134.168 70.0204 133.57 69.9064 132.971 69.8712C132.914 69.8674 132.863 69.8329 132.84 69.7804L132.185 68.3261L129.64 68.8436L129.605 70.4389C129.603 70.4959 129.57 70.5484 129.519 70.5731C128.981 70.8394 128.475 71.1776 128.016 71.5856C127.973 71.6231 127.913 71.6344 127.859 71.6141L127.86 71.6149ZM129.596 74.6036C130.081 73.8701 130.972 73.3624 131.927 73.1636C132.883 72.9649 133.9 73.0759 134.634 73.5619C135.368 74.0471 135.875 74.9381 136.074 75.8937C136.273 76.8491 136.162 77.8662 135.676 78.6004C135.191 79.3339 134.3 79.8416 133.344 80.0404C132.389 80.2391 131.372 80.1282 130.637 79.6422C129.904 79.1569 129.396 78.2659 129.197 77.3104C128.999 76.3549 129.11 75.3379 129.596 74.6036ZM129.852 74.7731C129.408 75.4436 129.317 76.3744 129.498 77.2474C129.68 78.1211 130.136 78.9409 130.807 79.3849C131.477 79.8289 132.408 79.9204 133.281 79.7389C134.155 79.5566 134.975 79.1007 135.419 78.4302C135.863 77.7597 135.954 76.8289 135.773 75.9559C135.591 75.0821 135.135 74.2624 134.464 73.8184C133.793 73.3744 132.863 73.2829 131.99 73.4644C131.116 73.6459 130.296 74.1019 129.852 74.7731Z" fill="#B8C9E5"/>
<path d="M133.378 44.2866C134.16 44.2866 134.793 43.6529 134.793 42.8713C134.793 42.0897 134.16 41.4561 133.378 41.4561C132.597 41.4561 131.963 42.0897 131.963 42.8713C131.963 43.6529 132.597 44.2866 133.378 44.2866Z" fill="#E6EAF6"/>
<path d="M128.976 40.6499C130.195 40.6499 131.184 39.6613 131.184 38.4419C131.184 37.2224 130.195 36.2339 128.976 36.2339C127.756 36.2339 126.768 37.2224 126.768 38.4419C126.768 39.6613 127.756 40.6499 128.976 40.6499Z" fill="#E6EAF6"/>
<path d="M12.1123 101.803C13.13 101.803 13.955 100.978 13.955 99.9604C13.955 98.9427 13.13 98.1177 12.1123 98.1177C11.0946 98.1177 10.2695 98.9427 10.2695 99.9604C10.2695 100.978 11.0946 101.803 12.1123 101.803Z" fill="#E6EAF6"/>
<path d="M15.529 110.214C17.1167 110.214 18.4038 108.927 18.4038 107.339C18.4038 105.751 17.1167 104.464 15.529 104.464C13.9414 104.464 12.6543 105.751 12.6543 107.339C12.6543 108.927 13.9414 110.214 15.529 110.214Z" fill="#E6EAF6"/>
<path d="M109.518 97.9028C109.918 97.6718 110.22 97.3193 110.382 96.894C110.332 97.0238 110.269 97.1475 110.195 97.2623C110.027 97.524 109.797 97.7423 109.518 97.9028H109.518Z" fill="#444D56"/>
<path fill-rule="evenodd" clip-rule="evenodd" d="M116.284 65.9753L115.088 69.7216L117.587 70.4498L118.527 66.6076L116.288 65.9648L116.285 65.9761L116.284 65.9753Z" fill="#B8C9E5"/>
<path fill-rule="evenodd" clip-rule="evenodd" d="M116.127 65.9301L116.129 65.9256C116.129 65.9256 116.13 65.9219 116.13 65.9196C116.155 65.8334 116.245 65.7839 116.331 65.8086L118.57 66.4514C118.654 66.4754 118.703 66.5616 118.683 66.6464L117.743 70.4886C117.733 70.5314 117.705 70.5689 117.667 70.5906C117.629 70.6131 117.583 70.6184 117.54 70.6056L115.041 69.8774C114.999 69.8654 114.964 69.8361 114.943 69.7979C114.923 69.7589 114.918 69.7139 114.932 69.6719L116.127 65.9301ZM116.393 66.1641L115.292 69.6119L117.468 70.2456L118.331 66.7199C118.331 66.7199 116.876 66.3021 116.394 66.1641H116.393Z" fill="#6E94D3"/>
<path d="M109.518 97.9028C109.918 97.6718 110.22 97.3193 110.382 96.894C110.332 97.0238 110.269 97.1475 110.195 97.2623C110.027 97.524 109.797 97.7423 109.518 97.9028H109.518Z" fill="#5C6874"/>
<path fill-rule="evenodd" clip-rule="evenodd" d="M114.649 69.3892C114.582 69.3704 114.513 69.4072 114.491 69.4732C113.872 71.3654 106.025 95.3692 106.025 95.3692C105.807 96.0494 105.873 96.7724 106.212 97.4047C106.549 98.0362 107.114 98.4922 107.802 98.6894C108.489 98.8867 109.211 98.7997 109.829 98.4427C110.328 98.1547 110.709 97.7219 110.929 97.1999C110.982 97.0762 111.025 96.9479 111.058 96.8137C111.058 96.8137 117.64 72.4709 118.165 70.5299C118.183 70.4617 118.144 70.3919 118.077 70.3724C117.518 70.2119 115.203 69.5474 114.65 69.3884L114.649 69.3892Z" fill="#B8C9E5"/>
<path fill-rule="evenodd" clip-rule="evenodd" d="M114.725 69.1607L118.132 70.1387L118.203 70.1665L118.265 70.2069L118.317 70.2579L118.358 70.3165L118.387 70.3825L118.404 70.453L118.406 70.5272L118.393 70.6022C118.393 70.6022 111.29 96.874 111.291 96.8717C111.254 97.0187 111.208 97.1582 111.15 97.2932C110.91 97.8625 110.494 98.3357 109.949 98.65C109.274 99.0392 108.486 99.1345 107.736 98.9192C106.985 98.7032 106.368 98.206 106 97.5167C105.63 96.8275 105.558 96.0377 105.796 95.2952C105.796 95.2952 105.796 95.2945 105.796 95.2937L114.259 69.4067L114.29 69.3384L114.331 69.2784L114.383 69.229L114.443 69.1899L114.508 69.163L114.577 69.1479H114.651L114.725 69.1599V69.1607ZM117.904 70.5729L114.686 69.6489C113.866 72.1584 106.305 95.284 106.253 95.4422C106.055 96.0602 106.115 96.7165 106.423 97.2902C106.73 97.864 107.243 98.278 107.868 98.458C108.492 98.6372 109.147 98.5577 109.708 98.2345C110.161 97.9727 110.507 97.5797 110.707 97.1065C110.707 97.1065 110.707 97.1065 110.707 97.1057C110.755 96.994 110.794 96.8777 110.824 96.7562C110.824 96.7547 110.824 96.7532 110.825 96.7517L117.903 70.5737L117.904 70.5729Z" fill="#6E94D3"/>
<path d="M106.578 97.9268C106.896 98.28 107.304 98.5395 107.771 98.679C107.304 98.5395 106.896 98.2793 106.578 97.9268ZM107.802 98.6888C108.489 98.886 109.21 98.799 109.828 98.4428C109.989 98.3498 110.14 98.2403 110.275 98.1188C110.14 98.2403 109.99 98.3498 109.828 98.4428C109.21 98.799 108.489 98.8868 107.802 98.6888Z" fill="#D7D0C4"/>
<path fill-rule="evenodd" clip-rule="evenodd" d="M124.718 41.2226C131.729 43.2348 135.812 50.5743 133.817 57.5823C131.824 64.5903 124.498 68.6546 117.486 66.6423C110.475 64.6293 106.393 57.2906 108.386 50.2826C110.38 43.2746 117.706 39.2103 124.717 41.2233L124.718 41.2226Z" fill="#B8C9E5"/>
<path fill-rule="evenodd" clip-rule="evenodd" d="M125.069 39.9848C132.764 42.1936 137.243 50.2471 135.055 57.9383C132.867 65.6296 124.828 70.0891 117.133 67.8803C109.438 65.6716 104.959 57.6181 107.147 49.9268C109.335 42.2356 117.374 37.7761 125.069 39.9848ZM124.716 41.2231C117.705 39.2101 110.378 43.2744 108.385 50.2824C106.391 57.2903 110.474 64.6291 117.485 66.6421C124.496 68.6551 131.822 64.5908 133.816 57.5828C135.809 50.5748 131.727 43.2361 124.716 41.2231Z" fill="#6E94D3"/>
<path d="M126.335 121.514H113.744V138.917H126.335V121.514Z" fill="#8AA1C7"/>
<path d="M99.1183 121.514H86.5273V138.917H99.1183V121.514Z" fill="#8AA1C7"/>
<path d="M126.336 117.371H89.8945V123.164H126.336V117.371Z" fill="#8AA1C7"/>
<path d="M126.336 117.371H89.8945V120.267H126.336V117.371Z" fill="black"/>
<path fill-rule="evenodd" clip-rule="evenodd" d="M126.335 123.165V123.613H113.743V123.165H126.335ZM86.5273 123.613V123.165H99.1183V123.613H86.5273Z" fill="black"/>
<path fill-rule="evenodd" clip-rule="evenodd" d="M127.057 103.508C129.023 103.508 130.908 104.289 132.299 105.68C133.689 107.069 134.47 108.956 134.47 110.921C134.47 115.016 131.151 118.334 127.057 118.334H89.4316V103.508H127.057Z" fill="#B8C9E5"/>
<path fill-rule="evenodd" clip-rule="evenodd" d="M127.057 103.046C129.146 103.046 131.148 103.876 132.625 105.353C134.102 106.829 134.932 108.833 134.932 110.921C134.932 115.271 131.406 118.796 127.057 118.796H89.4319C89.1769 118.796 88.9707 118.589 88.9707 118.334V103.508C88.9707 103.253 89.1777 103.046 89.4319 103.046H127.057ZM127.057 103.969H89.8939V117.872H127.057C130.896 117.872 134.008 114.76 134.008 110.921C134.008 109.077 133.275 107.309 131.972 106.006C130.668 104.702 128.9 103.97 127.056 103.97L127.057 103.969Z" fill="#3869BA"/>
<path d="M126.334 115.834C129.047 115.834 131.247 113.634 131.247 110.921C131.247 108.208 129.047 106.009 126.334 106.009C123.621 106.009 121.422 108.208 121.422 110.921C121.422 113.634 123.621 115.834 126.334 115.834Z" fill="#6E94D3"/>
<path fill-rule="evenodd" clip-rule="evenodd" d="M126.335 105.547C129.301 105.547 131.709 107.955 131.709 110.921C131.709 113.888 129.301 116.295 126.335 116.295C123.368 116.295 120.961 113.887 120.961 110.921C120.961 107.956 123.369 105.547 126.335 105.547ZM126.335 106.47C123.878 106.47 121.884 108.464 121.884 110.921C121.884 113.378 123.878 115.372 126.335 115.372C128.791 115.372 130.786 113.378 130.786 110.921C130.786 108.465 128.792 106.47 126.335 106.47Z" fill="#8AA1C7"/>
<path d="M111.563 115.834C114.276 115.834 116.475 113.634 116.475 110.921C116.475 108.208 114.276 106.009 111.563 106.009C108.85 106.009 106.65 108.208 106.65 110.921C106.65 113.634 108.85 115.834 111.563 115.834Z" fill="#6E94D3"/>
<path fill-rule="evenodd" clip-rule="evenodd" d="M111.563 105.547C114.529 105.547 116.938 107.955 116.938 110.921C116.938 113.888 114.529 116.295 111.563 116.295C108.597 116.295 106.189 113.887 106.189 110.921C106.189 107.956 108.598 105.547 111.563 105.547ZM111.563 106.47C109.107 106.47 107.113 108.464 107.113 110.921C107.113 113.378 109.107 115.372 111.563 115.372C114.019 115.372 116.014 113.378 116.014 110.921C116.014 108.465 114.02 106.47 111.563 106.47Z" fill="#8AA1C7"/>
<path d="M96.7914 115.834C99.5045 115.834 101.704 113.634 101.704 110.921C101.704 108.208 99.5045 106.009 96.7914 106.009C94.0783 106.009 91.8789 108.208 91.8789 110.921C91.8789 113.634 94.0783 115.834 96.7914 115.834Z" fill="#6E94D3"/>
<path fill-rule="evenodd" clip-rule="evenodd" d="M96.7917 105.547C99.758 105.547 102.166 107.955 102.166 110.921C102.166 113.888 99.758 116.295 96.7917 116.295C93.8255 116.295 91.418 113.887 91.418 110.921C91.418 107.956 93.8262 105.547 96.7917 105.547ZM96.7917 106.47C94.3355 106.47 92.3412 108.464 92.3412 110.921C92.3412 113.378 94.3355 115.372 96.7917 115.372C99.248 115.372 101.243 113.378 101.243 110.921C101.243 108.465 99.2487 106.47 96.7917 106.47Z" fill="#8AA1C7"/>
<path d="M127.05 87.1201H107.867V103.047H127.05V87.1201Z" fill="#213C64"/>
<path d="M121.624 87.1201H107.867V103.047H121.624V87.1201Z" fill="#274675"/>
<path fill-rule="evenodd" clip-rule="evenodd" d="M125.235 90.2394V87.1201H123.869V89.9821L124.045 89.8494L124.33 90.3571H124.336L124.443 89.9874L124.631 90.3354L124.928 90.0309L125.234 90.2394H125.235Z" fill="#B8C9E5"/>
<path fill-rule="evenodd" clip-rule="evenodd" d="M123.868 99.7329V103.046H125.234V99.7329L125.049 99.8717L124.907 99.7329L124.748 100.203L124.55 99.7329L124.249 100.055L123.867 99.7329H123.868Z" fill="#B8C9E5"/>
<path fill-rule="evenodd" clip-rule="evenodd" d="M107.867 102.65V103.048H121.624V87.1216H121.29L120.39 102.029L107.867 102.651V102.65Z" fill="black"/>
<path fill-rule="evenodd" clip-rule="evenodd" d="M120.698 89.3449H117.139C117.125 89.3449 117.113 89.3336 117.113 89.3194V87.7189C117.113 87.7046 117.125 87.6934 117.139 87.6934H120.698C120.712 87.6934 120.724 87.7046 120.724 87.7189V89.3194C120.724 89.3329 120.713 89.3449 120.698 89.3449ZM118.3 87.7444H117.164V89.2939H118.3V87.7444ZM119.486 87.7444H118.351V89.2939H119.486V87.7444ZM119.537 89.2939H120.673V87.7444H119.537V89.2939Z" fill="#B8C9E5"/>
<path d="M106.488 80.3838H79.1914V103.047H106.488V80.3838Z" fill="#213C64"/>
<path d="M98.7664 80.3838H79.1914V103.047H98.7664V80.3838Z" fill="#274675"/>
<path fill-rule="evenodd" clip-rule="evenodd" d="M103.901 84.823V80.3838H101.957V84.4563L102.207 84.268L102.613 84.9903H102.622L102.774 84.4645L103.042 84.9595L103.465 84.526L103.901 84.823Z" fill="#B8C9E5"/>
<path fill-rule="evenodd" clip-rule="evenodd" d="M101.957 98.332V103.047H103.901V98.332L103.639 98.5293L103.437 98.332L103.21 99.0018L102.929 98.332L102.5 98.791L101.957 98.332Z" fill="#B8C9E5"/>
<path fill-rule="evenodd" clip-rule="evenodd" d="M79.1895 102.483V103.048H98.7645V80.3853H98.2897L97.0087 101.598L79.1895 102.483Z" fill="black"/>
<path fill-rule="evenodd" clip-rule="evenodd" d="M97.446 83.5497H92.3805C92.3602 83.5497 92.3438 83.5332 92.3438 83.5137V81.236C92.3438 81.2157 92.3602 81.1992 92.3805 81.1992H97.446C97.4655 81.1992 97.482 81.2157 97.482 81.236V83.5137C97.482 83.5332 97.4655 83.5497 97.446 83.5497ZM94.0328 81.272H92.4165V83.477H94.0328V81.272ZM95.721 81.272H94.1047V83.477H95.721V81.272ZM95.7937 83.477H97.41V81.272H95.7937V83.477Z" fill="#B8C9E5"/>
<path d="M87.7703 138.918H20.1098C18.3398 138.918 16.9043 137.559 16.9043 135.882V35.308C16.9043 33.6317 18.339 32.272 20.1098 32.272H87.7703C89.541 32.272 90.9758 33.631 90.9758 35.308V135.882C90.9758 137.559 89.5403 138.918 87.7703 138.918Z" fill="#6E94D3"/>
<g opacity="0.1">
<path fill-rule="evenodd" clip-rule="evenodd" d="M22.5238 132.266L21.7168 132.255L23.1403 92.2L22.232 40.1283L23.414 40.108V37.555H25.121L25.1653 36.3325L53.6075 37.555L86.9998 37.063L87.1768 37.0555V37.585L88.7053 37.6405L88.883 37.639L87.134 85.891V107.309L87.6058 134.349L22.9963 135.552L22.9603 133.488H22.523V132.264L22.5238 132.266Z" fill="black"/>
</g>
<path fill-rule="evenodd" clip-rule="evenodd" d="M87.5063 37.7561L84.0488 133.14L20.373 130.641L23.8305 35.2646L87.3286 37.7569L87.5056 37.7554L87.5063 37.7561Z" fill="#E5EAF0"/>
<path fill-rule="evenodd" clip-rule="evenodd" d="M84.6067 37.8491L86.271 133.281L22.5607 134.484L20.8965 39.0596L84.4297 37.8596L84.6067 37.8491Z" fill="#D2D6DB"/>
<path fill-rule="evenodd" clip-rule="evenodd" d="M85.8008 36.4795V131.927H22.0801V36.4877H85.6238L85.8008 36.4795Z" fill="#FFFFFC"/>
<path d="M64.2834 30.6266H58.9899L59.5749 29.8481C60.2206 28.9894 61.7011 24.6919 58.4019 24.6919H49.4026C45.9856 24.6919 47.5846 28.9879 48.2289 29.8474L48.8131 30.6266H43.5946C42.5964 30.6266 41.7871 31.3631 41.7871 32.2721V37.7471H66.0901V32.2721C66.0901 31.3631 65.2809 30.6266 64.2826 30.6266" fill="#274675"/>
<path fill-rule="evenodd" clip-rule="evenodd" d="M34.8179 62.4432H27.5271C26.7321 62.4432 26.0879 61.799 26.0879 61.004V53.159C26.0879 52.364 26.7321 51.7197 27.5271 51.7197H34.8179C35.6129 51.7197 36.2571 52.3647 36.2571 53.159V61.004C36.2571 61.799 35.6129 62.4432 34.8179 62.4432ZM34.8179 62.1447C35.4479 62.1447 35.9586 61.634 35.9586 61.004V53.159C35.9586 52.529 35.4479 52.0175 34.8179 52.0175H27.5271C26.8971 52.0175 26.3856 52.5282 26.3856 53.159V61.004C26.3856 61.634 26.8964 62.1447 27.5271 62.1447H34.8179Z" fill="#2D2D2D"/>
<path d="M81.643 57.668H38.6133V58.6655H81.643V57.668Z" fill="#DDDDDD"/>
<path d="M65.9553 60.5513H38.6133V61.5488H65.9553V60.5513Z" fill="#DDDDDD"/>
<path d="M81.643 52.3252H38.6133V56.0564H81.643V52.3252Z" fill="#DDDDDD"/>
<path d="M29.708 59.9219C29.7013 59.9219 29.6945 59.9219 29.687 59.9219C29.4898 59.9144 29.3083 59.8094 29.2018 59.6399C28.538 58.5794 27.3748 57.5909 27.3635 57.5811C27.1085 57.3659 27.0733 56.9811 27.284 56.7209C27.4955 56.4614 27.8728 56.4246 28.1278 56.6399C28.1713 56.6766 29.0135 57.3906 29.7388 58.3146C30.4738 57.4686 32.0015 55.8996 34.3858 54.3381C34.664 54.1551 35.0353 54.2376 35.2145 54.5219C35.3938 54.8054 35.3128 55.1834 35.0345 55.3656C31.7983 57.4851 30.2053 59.6526 30.1895 59.6744C30.0763 59.8304 29.897 59.9226 29.7073 59.9226" fill="#6E94D3"/>
<path fill-rule="evenodd" clip-rule="evenodd" d="M34.7699 78.3417H27.5751C26.7539 78.3417 26.0879 77.6757 26.0879 76.8544V69.1054C26.0879 68.2834 26.7539 67.6182 27.5751 67.6182H34.7699C35.5911 67.6182 36.2571 68.2842 36.2571 69.1054V76.8544C36.2571 77.6757 35.5911 78.3417 34.7699 78.3417ZM34.7699 78.0432C35.4269 78.0432 35.9586 77.5107 35.9586 76.8537V69.1047C35.9586 68.4477 35.4261 67.9152 34.7699 67.9152H27.5751C26.9181 67.9152 26.3864 68.4477 26.3864 69.1047V76.8537C26.3864 77.5107 26.9189 78.0432 27.5751 78.0432H34.7699Z" fill="#2D2D2D"/>
<path d="M81.643 73.7412H38.6133V74.7387H81.643V73.7412Z" fill="#DDDDDD"/>
<path d="M58.0585 76.625H38.6133V77.6225H58.0585V76.625Z" fill="#DDDDDD"/>
<path d="M81.643 68.2222H38.6133V71.9542H81.643V68.2222Z" fill="#DDDDDD"/>
<path d="M29.708 75.8632C29.7013 75.8632 29.6945 75.8632 29.687 75.8632C29.4898 75.8565 29.3083 75.7515 29.2018 75.5812C28.538 74.5207 27.3748 73.5322 27.3635 73.5225C27.1085 73.3072 27.0733 72.9225 27.284 72.6622C27.4955 72.4027 27.8728 72.366 28.1278 72.5812C28.1713 72.618 29.0135 73.332 29.7388 74.256C30.4738 73.41 32.0015 71.841 34.3858 70.2795C34.664 70.0972 35.0353 70.1797 35.2145 70.4632C35.3938 70.7467 35.3128 71.1247 35.0345 71.3077C31.7983 73.4272 30.2053 75.5947 30.1895 75.6165C30.0763 75.7725 29.897 75.8647 29.7073 75.8647" fill="#6E94D3"/>
<path d="M29.708 107.746C29.7013 107.746 29.6945 107.746 29.687 107.746C29.4898 107.739 29.3083 107.634 29.2018 107.464C28.538 106.403 27.3748 105.415 27.3635 105.405C27.1085 105.19 27.0733 104.805 27.284 104.545C27.4955 104.285 27.8728 104.248 28.1278 104.464C28.1713 104.5 29.0135 105.214 29.7388 106.138C30.4738 105.292 32.0015 103.723 34.3858 102.162C34.664 101.98 35.0353 102.062 35.2145 102.346C35.3938 102.629 35.3128 103.007 35.0345 103.19C31.7983 105.31 30.2053 107.477 30.1895 107.499C30.0763 107.655 29.897 107.747 29.7073 107.747" fill="#6E94D3"/>
<path fill-rule="evenodd" clip-rule="evenodd" d="M34.7931 94.2394H27.5519C26.7434 94.2394 26.0879 93.5839 26.0879 92.7746V84.9791C26.0879 84.1706 26.7434 83.5151 27.5519 83.5151H34.7931C35.6016 83.5151 36.2579 84.1706 36.2579 84.9791V92.7746C36.2579 93.5831 35.6024 94.2394 34.7931 94.2394ZM34.7931 93.9409C35.4374 93.9409 35.9594 93.4189 35.9594 92.7746V84.9791C35.9594 84.3356 35.4374 83.8136 34.7931 83.8136H27.5519C26.9076 83.8136 26.3856 84.3356 26.3856 84.9791V92.7746C26.3856 93.4189 26.9076 93.9409 27.5519 93.9409H34.7931Z" fill="#2D2D2D"/>
<path d="M81.643 89.522H38.6133V90.5195H81.643V89.522Z" fill="#DDDDDD"/>
<path d="M68.4078 92.4053H38.6133V93.4028H68.4078V92.4053Z" fill="#DDDDDD"/>
<path d="M81.643 84.1196H38.6133V87.8509H81.643V84.1196Z" fill="#DDDDDD"/>
<path d="M29.708 91.8053C29.7013 91.8053 29.6945 91.8053 29.687 91.8053C29.4898 91.7986 29.3083 91.6936 29.2018 91.5233C28.538 90.4628 27.3748 89.4743 27.3635 89.4646C27.1085 89.2493 27.0733 88.8646 27.284 88.6043C27.4955 88.3448 27.8728 88.3081 28.1278 88.5233C28.1713 88.5593 29.0135 89.2741 29.7388 90.1981C30.4738 89.3521 32.0015 87.7831 34.3858 86.2216C34.664 86.0393 35.0353 86.1211 35.2145 86.4053C35.3938 86.6888 35.3128 87.0668 35.0345 87.2498C31.7983 89.3693 30.2053 91.5368 30.1895 91.5586C30.0763 91.7146 29.897 91.8068 29.7073 91.8068" fill="#6E94D3"/>
<path d="M29.708 123.687C29.7013 123.687 29.6945 123.687 29.687 123.687C29.4898 123.68 29.3083 123.575 29.2018 123.405C28.538 122.344 27.3748 121.356 27.3635 121.346C27.1085 121.131 27.0733 120.746 27.284 120.486C27.4955 120.226 27.8728 120.189 28.1278 120.405C28.1713 120.441 29.0135 121.155 29.7388 122.079C30.4738 121.233 32.0015 119.664 34.3858 118.103C34.664 117.921 35.0353 118.002 35.2145 118.287C35.3938 118.57 35.3128 118.948 35.0345 119.131C31.7983 121.251 30.2053 123.418 30.1895 123.44C30.0763 123.596 29.897 123.688 29.7073 123.688" fill="#6E94D3"/>
<path fill-rule="evenodd" clip-rule="evenodd" d="M34.7451 126.035H27.5999C26.7644 126.035 26.0879 125.358 26.0879 124.523V116.824C26.0879 115.988 26.7651 115.312 27.5999 115.312H34.7451C35.5806 115.312 36.2571 115.989 36.2571 116.824V124.523C36.2571 125.359 35.5799 126.035 34.7451 126.035ZM34.7451 125.737C35.4156 125.737 35.9594 125.193 35.9594 124.522V116.823C35.9594 116.152 35.4156 115.609 34.7451 115.609H27.5999C26.9294 115.609 26.3856 116.152 26.3856 116.823V124.522C26.3856 125.193 26.9294 125.737 27.5999 125.737H34.7451Z" fill="#2D2D2D"/>
<path d="M81.643 121.129H38.6133V122.127H81.643V121.129Z" fill="#DDDDDD"/>
<path d="M52.648 124.012H38.6133V125.01H52.648V124.012Z" fill="#DDDDDD"/>
<path d="M81.643 115.916H38.6133V119.648H81.643V115.916Z" fill="#DDDDDD"/>
<path fill-rule="evenodd" clip-rule="evenodd" d="M34.7451 110.137H27.5999C26.7644 110.137 26.0879 109.46 26.0879 108.625V100.926C26.0879 100.09 26.7651 99.4136 27.5999 99.4136H34.7451C35.5806 99.4136 36.2571 100.091 36.2571 100.926V108.625C36.2571 109.461 35.5799 110.137 34.7451 110.137ZM34.7451 109.839C35.4156 109.839 35.9594 109.295 35.9594 108.624V100.925C35.9594 100.254 35.4156 99.7106 34.7451 99.7106H27.5999C26.9294 99.7106 26.3856 100.254 26.3856 100.925V108.624C26.3856 109.295 26.9294 109.839 27.5999 109.839H34.7451Z" fill="#2D2D2D"/>
<path d="M81.643 105.231H38.6133V106.228H81.643V105.231Z" fill="#DDDDDD"/>
<path d="M52.648 108.115H38.6133V109.112H52.648V108.115Z" fill="#DDDDDD"/>
<path d="M81.643 100.018H38.6133V103.75H81.643V100.018Z" fill="#DDDDDD"/>
<path fill-rule="evenodd" clip-rule="evenodd" d="M73.6768 43.3468V46.1488C73.6768 46.922 73.0491 47.5498 72.2758 47.5498H35.6061C34.8328 47.5498 34.2051 46.922 34.2051 46.1488V43.3468C34.2051 42.5736 34.8328 41.9458 35.6061 41.9458H72.2758C73.0491 41.9458 73.6768 42.5736 73.6768 43.3468Z" fill="#6E94D3"/>
<path d="M101.313 67.5737C103.87 68.7505 106.551 66.1592 105.462 63.5627L96.4579 45.2402L89.5039 48.181L95.5557 67.7515C96.6447 70.348 100.364 70.2325 101.312 67.573" fill="#213C64"/>
<path d="M76.59 67.4889C74.0145 68.6484 71.3737 66.0392 72.5025 63.4502L82.4617 45.4824L88.6942 48.1787L82.3432 67.7072C81.2145 70.2962 77.4975 70.1552 76.59 67.4897" fill="#213C64"/>
<path d="M87.8855 27.7617C87.3268 28.2972 86.4928 28.4262 85.802 28.0842C84.917 27.6454 83.84 27.9912 83.3705 28.8642C83.0038 29.5459 82.25 29.9262 81.4858 29.8144C80.507 29.6719 79.589 30.3319 79.4113 31.3062C79.2725 32.0667 78.6718 32.6607 77.9098 32.7912C76.934 32.9577 76.2635 33.8689 76.3955 34.8492C76.4983 35.6142 76.1098 36.3642 75.4243 36.7234C74.546 37.1832 74.189 38.2557 74.618 39.1459C74.9525 39.8412 74.8145 40.6729 74.2723 41.2257C73.5785 41.9337 73.5695 43.0632 74.2528 43.7757C74.786 44.3322 74.912 45.1654 74.5663 45.8577C74.1238 46.7449 74.465 47.8197 75.3358 48.2854C76.016 48.6492 76.3925 49.4014 76.2778 50.1657C76.1308 51.1444 76.787 52.0602 77.7605 52.2334C78.5203 52.3684 79.112 52.9669 79.2388 53.7282C79.4015 54.7032 80.3098 55.3699 81.29 55.2342C82.0558 55.1277 82.8035 55.5132 83.1598 56.1972C83.6158 57.0732 84.6868 57.4257 85.5793 56.9937C86.276 56.6562 87.107 56.7904 87.6575 57.3304C88.3625 58.0212 89.492 58.0257 90.2075 57.3394C90.7663 56.8039 91.6003 56.6749 92.291 57.0169C93.176 57.4557 94.253 57.1099 94.7225 56.2369C95.0893 55.5552 95.843 55.1749 96.6073 55.2867C97.586 55.4292 98.504 54.7692 98.6818 53.7949C98.8205 53.0344 99.4213 52.4404 100.183 52.3099C101.159 52.1434 101.83 51.2322 101.698 50.2519C101.596 49.4869 101.984 48.7369 102.67 48.3777C103.548 47.9179 103.905 46.8454 103.476 45.9552C103.141 45.2599 103.279 44.4282 103.822 43.8754C104.515 43.1674 104.524 42.0387 103.841 41.3254C103.308 40.7689 103.182 39.9357 103.528 39.2434C103.969 38.3562 103.629 37.2814 102.758 36.8157C102.078 36.4519 101.701 35.6997 101.816 34.9347C101.963 33.9559 101.307 33.0402 100.333 32.8669C99.5735 32.7312 98.9818 32.1334 98.855 31.3722C98.6923 30.3972 97.784 29.7304 96.8038 29.8662C96.038 29.9727 95.2903 29.5872 94.934 28.9032C94.478 28.0272 93.407 27.6747 92.5145 28.1067C91.8178 28.4442 90.9868 28.3099 90.4363 27.7699C89.7313 27.0792 88.6018 27.0747 87.8863 27.7609" fill="#274675"/>
<path d="M77.5433 42.5112C77.4946 48.8652 82.6058 54.0335 88.9598 54.0552C95.3138 54.077 100.504 48.944 100.553 42.59C100.601 36.236 95.4901 31.0677 89.1361 31.046C82.7821 31.0242 77.5921 36.1572 77.5433 42.5112Z" fill="#213C64"/>
<path d="M78.2386 42.5133C78.1929 48.4825 82.9951 53.338 88.9644 53.3583C94.9336 53.3785 99.8101 48.556 99.8559 42.5868C99.9016 36.6175 95.0994 31.762 89.1301 31.7418C83.1609 31.7215 78.2844 36.544 78.2386 42.5133Z" fill="#3864A7"/>
<path d="M82.4609 35.5308H84.0892V45.6063H82.4609V35.5308Z" fill="#F4F6FB"/>
<path d="M85.6282 45.0957C85.2232 44.6592 85.0215 44.033 85.0215 43.217V42.641H86.5605V43.3317C86.5605 43.9842 86.8417 44.3105 87.4042 44.3105C87.6802 44.3105 87.8902 44.231 88.0335 44.0727C88.1767 43.9145 88.248 43.658 88.248 43.3025C88.248 42.8802 88.149 42.5082 87.9517 42.1872C87.7545 41.8655 87.3892 41.48 86.8567 41.0285C86.1855 40.4525 85.7167 39.932 85.4505 39.467C85.1842 39.002 85.0507 38.4762 85.0507 37.8905C85.0507 37.094 85.2577 36.4775 85.6725 36.041C86.0872 35.6045 86.6887 35.3862 87.4785 35.3862C88.2682 35.3862 88.8472 35.6045 89.247 36.041C89.6467 36.4775 89.8462 37.1037 89.8462 37.9197V38.3375H88.3072V37.8192C88.3072 37.4735 88.2382 37.2222 88.1002 37.0632C87.9622 36.905 87.7597 36.8255 87.4935 36.8255C86.9505 36.8255 86.6797 37.1472 86.6797 37.79C86.6797 38.1545 86.781 38.495 86.9835 38.8122C87.186 39.1287 87.5535 39.5127 88.086 39.9635C88.767 40.5395 89.2357 41.0622 89.4922 41.5325C89.7487 42.0027 89.877 42.5547 89.877 43.1877C89.877 44.0135 89.667 44.6465 89.2477 45.0875C88.8285 45.5292 88.2187 45.7497 87.42 45.7497C86.6212 45.7497 86.0332 45.5315 85.629 45.095L85.6282 45.0957Z" fill="#F4F6FB"/>
<path d="M91.3262 45.0892C90.9017 44.6482 90.6895 44.0242 90.6895 43.218V37.9207C90.6895 37.1145 90.9017 36.4912 91.3262 36.0495C91.7507 35.6085 92.362 35.3872 93.1615 35.3872C93.961 35.3872 94.5722 35.6077 94.9967 36.0495C95.4212 36.4912 95.6335 37.1145 95.6335 37.9207V43.218C95.6335 44.0242 95.4212 44.6482 94.9967 45.0892C94.5722 45.531 93.961 45.7515 93.1615 45.7515C92.362 45.7515 91.75 45.531 91.3262 45.0892ZM94.0052 43.3185V37.8202C94.0052 37.158 93.724 36.8272 93.1615 36.8272C92.599 36.8272 92.3177 37.158 92.3177 37.8202V43.3185C92.3177 43.9807 92.599 44.3115 93.1615 44.3115C93.724 44.3115 94.0052 43.9807 94.0052 43.3185Z" fill="#F4F6FB"/>
<path d="M82.6469 49.5125C82.5232 49.3783 82.4609 49.1885 82.4609 48.944V47.2595C82.4609 47.015 82.5232 46.8253 82.6469 46.691C82.7707 46.5568 82.9507 46.4893 83.1869 46.4893C83.4232 46.4893 83.6024 46.5568 83.7269 46.691C83.8507 46.8253 83.9129 47.015 83.9129 47.2595V47.591H83.4472V47.228C83.4472 47.0338 83.3654 46.937 83.2012 46.937C83.0369 46.937 82.9544 47.0338 82.9544 47.228V48.9793C82.9544 49.1705 83.0362 49.2658 83.2012 49.2658C83.3662 49.2658 83.4472 49.1705 83.4472 48.9793V48.5H83.9129V48.9433C83.9129 49.1885 83.8507 49.3775 83.7269 49.5118C83.6032 49.646 83.4232 49.7135 83.1869 49.7135C82.9507 49.7135 82.7714 49.646 82.6469 49.5118V49.5125Z" fill="#F4F6FB"/>
<path d="M84.209 46.5335H85.553V46.9812H84.7017V47.81H85.3782V48.2577H84.7017V49.2207H85.553V49.6685H84.209V46.5327V46.5335Z" fill="#F4F6FB"/>
<path d="M85.834 46.5337H86.5645C86.818 46.5337 87.0032 46.5929 87.1202 46.7107C87.2365 46.8284 87.295 47.0099 87.295 47.2552V47.4479C87.295 47.7734 87.1877 47.9797 86.9725 48.0659V48.0749C87.0917 48.1109 87.1765 48.1837 87.2252 48.2947C87.2747 48.4049 87.2995 48.5527 87.2995 48.7379V49.2892C87.2995 49.3784 87.3025 49.4512 87.3085 49.5067C87.3145 49.5622 87.3295 49.6162 87.3535 49.6702H86.8517C86.8337 49.6192 86.8217 49.5719 86.8157 49.5269C86.8097 49.4819 86.8067 49.4017 86.8067 49.2847V48.7117C86.8067 48.5684 86.7835 48.4687 86.737 48.4117C86.6905 48.3547 86.611 48.3269 86.497 48.3269H86.3267V49.6709H85.834V46.5352V46.5337ZM86.506 47.8777C86.6042 47.8777 86.6785 47.8522 86.728 47.8012C86.7775 47.7502 86.8022 47.6654 86.8022 47.5462V47.3039C86.8022 47.1907 86.782 47.1082 86.7415 47.0579C86.701 47.0069 86.638 46.9814 86.551 46.9814H86.3267V47.8769H86.506V47.8777Z" fill="#F4F6FB"/>
<path d="M88.0152 46.9814H87.5V46.5337H89.0232V46.9814H88.508V49.6687H88.0152V46.9814Z" fill="#F4F6FB"/>
<path d="M89.2617 46.5337H89.7545V49.6694H89.2617V46.5337Z" fill="#F4F6FB"/>
<path d="M90.1211 46.5337H91.4246V46.9814H90.6138V47.8552H91.2498V48.3029H90.6138V49.6694H90.1211V46.5337Z" fill="#F4F6FB"/>
<path d="M91.6621 46.5337H92.1549V49.6694H91.6621V46.5337Z" fill="#F4F6FB"/>
<path d="M92.5215 46.5335H93.8655V46.9812H93.0142V47.81H93.6907V48.2577H93.0142V49.2207H93.8655V49.6685H92.5215V46.5327V46.5335Z" fill="#F4F6FB"/>
<path d="M94.1484 46.5335H94.9007C95.1452 46.5335 95.3289 46.5995 95.4519 46.7307C95.5742 46.862 95.6357 47.0547 95.6357 47.3082V48.8937C95.6357 49.1472 95.5742 49.34 95.4519 49.4712C95.3297 49.6025 95.1459 49.6685 94.9007 49.6685H94.1484V46.5327V46.5335ZM94.8917 49.2207C94.9727 49.2207 95.0342 49.1967 95.0777 49.1487C95.1212 49.1007 95.1429 49.0235 95.1429 48.9155V47.285C95.1429 47.1777 95.1212 47.0997 95.0777 47.0517C95.0342 47.0037 94.9727 46.9797 94.8917 46.9797H94.6412V49.2192H94.8917V49.2207Z" fill="#F4F6FB"/>
<path fill-rule="evenodd" clip-rule="evenodd" d="M135.611 138.917C136.249 138.917 136.766 139.435 136.766 140.073C136.766 140.711 136.249 141.229 135.611 141.229H14.3882C13.7499 141.229 13.2324 140.711 13.2324 140.073C13.2324 139.435 13.7499 138.917 14.3882 138.917H135.611Z" fill="#274675"/>
</g>
<defs>
<clipPath id="clip0_1968_30607">
<rect width="150" height="150" fill="white" transform="translate(0 0.700195)"/>
</clipPath>
</defs>
</svg>
