<svg width="44" height="45" viewBox="0 0 44 45" fill="none" xmlns="http://www.w3.org/2000/svg">
<path d="M34.6577 3.6001H24.0934C23.765 3.59986 23.4499 3.72963 23.2169 3.96104L2.09688 25.0759C1.63455 25.5405 1.375 26.1693 1.375 26.8247C1.375 27.4802 1.63455 28.1089 2.09688 28.5735L12.1516 38.6282C12.6163 39.0906 13.2452 39.3502 13.9008 39.3502C14.5564 39.3502 15.1853 39.0906 15.6501 38.6282L36.7641 17.522C36.9955 17.289 37.1252 16.9738 37.125 16.6454V6.0751C37.1266 5.75029 37.0639 5.42837 36.9406 5.12787C36.8172 4.82738 36.6357 4.55425 36.4064 4.32421C36.1771 4.09417 35.9045 3.91176 35.6044 3.78749C35.3043 3.66322 34.9826 3.59953 34.6577 3.6001Z" stroke="#006AB2" stroke-width="1.5" stroke-linecap="round" stroke-linejoin="round"/>
<path d="M30.25 13.2251C29.7061 13.2251 29.1744 13.0638 28.7222 12.7616C28.2699 12.4595 27.9175 12.03 27.7093 11.5275C27.5012 11.025 27.4467 10.472 27.5528 9.9386C27.659 9.40515 27.9209 8.91515 28.3055 8.53056C28.6901 8.14596 29.1801 7.88405 29.7135 7.77794C30.247 7.67183 30.7999 7.72629 31.3024 7.93443C31.8049 8.14257 32.2344 8.49505 32.5365 8.94728C32.8387 9.39952 33 9.9312 33 10.4751C33 11.2044 32.7103 11.9039 32.1945 12.4196C31.6788 12.9354 30.9793 13.2251 30.25 13.2251Z" fill="#006AB2"/>
<path d="M19.7656 42.1001L42.2812 19.5845C42.3932 19.4716 42.4814 19.3373 42.5404 19.1897C42.5995 19.0421 42.6282 18.8841 42.625 18.7251V7.7251" stroke="#006AB2" stroke-width="1.5" stroke-linecap="round" stroke-linejoin="round"/>
</svg>
