<svg width="44" height="45" viewBox="0 0 44 45" fill="none" xmlns="http://www.w3.org/2000/svg">
<g clip-path="url(#clip0_1968_15235)">
<path d="M1.375 26.9751V43.4751M1.375 40.7251H31.625C31.625 39.2664 31.0455 37.8675 30.0141 36.836C28.9826 35.8046 27.5837 35.2251 26.125 35.2251H19.25M19.25 35.2251C19.25 33.7664 18.6705 32.3675 17.6391 31.336C16.6076 30.3046 15.2087 29.7251 13.75 29.7251H1.375M19.25 35.2251H12.375M12.155 2.2251H40.095C40.7725 2.23476 41.4188 2.51195 41.8927 2.99621C42.3667 3.48048 42.6299 4.13251 42.625 4.8101V20.7234C42.6299 21.401 42.3667 22.0531 41.8927 22.5373C41.4188 23.0216 40.7725 23.2988 40.095 23.3084H12.155C11.4775 23.2988 10.8312 23.0216 10.3573 22.5373C9.88332 22.0531 9.62009 21.401 9.625 20.7234V4.8101C9.62009 4.13251 9.88332 3.48048 10.3573 2.99621C10.8312 2.51195 11.4775 2.23476 12.155 2.2251Z" stroke="#006AB2" stroke-width="1.5" stroke-linecap="round" stroke-linejoin="round"/>
<path d="M14.666 8.18359H17.416M34.8327 17.3503H37.5827M21.9993 12.7669C21.9993 13.8609 22.4339 14.9102 23.2075 15.6837C23.9811 16.4573 25.0303 16.8919 26.1243 16.8919C27.2184 16.8919 28.2676 16.4573 29.0412 15.6837C29.8148 14.9102 30.2493 13.8609 30.2493 12.7669C30.2493 11.6729 29.8148 10.6237 29.0412 9.85011C28.2676 9.07652 27.2184 8.64193 26.1243 8.64193C25.0303 8.64193 23.9811 9.07652 23.2075 9.85011C22.4339 10.6237 21.9993 11.6729 21.9993 12.7669Z" stroke="#006AB2" stroke-width="1.5" stroke-linecap="round" stroke-linejoin="round"/>
</g>
<defs>
<clipPath id="clip0_1968_15235">
<rect width="44" height="44" fill="white" transform="translate(0 0.850098)"/>
</clipPath>
</defs>
</svg>
