<svg width="15" height="16" viewBox="0 0 15 16" fill="none" xmlns="http://www.w3.org/2000/svg">
<path d="M14.7656 8.15503C14.7656 12.1687 11.4844 15.4207 7.5 15.4207C3.48633 15.4207 0.234375 12.1687 0.234375 8.15503C0.234375 4.17065 3.48633 0.889404 7.5 0.889404C11.4844 0.889404 14.7656 4.17065 14.7656 8.15503ZM6.65039 12.0222L12.041 6.63159C12.2168 6.45581 12.2168 6.13354 12.041 5.95776L11.3672 5.31323C11.1914 5.10815 10.8984 5.10815 10.7227 5.31323L6.32812 9.70776L4.24805 7.65698C4.07227 7.4519 3.7793 7.4519 3.60352 7.65698L2.92969 8.30151C2.75391 8.47729 2.75391 8.79956 2.92969 8.97534L5.97656 12.0222C6.15234 12.198 6.47461 12.198 6.65039 12.0222Z" fill="#006AB2"/>
</svg>
