<svg width="16" height="16" viewBox="0 0 16 16" fill="none" xmlns="http://www.w3.org/2000/svg">
<path d="M15.7583 5.83271C15.7583 5.83271 15.7571 5.74961 15.7545 5.58342C15.752 5.41722 15.7407 5.12764 15.7206 4.71467C15.7004 4.3017 15.6601 3.94665 15.5997 3.64952C15.5392 3.35238 15.4587 3.08294 15.3579 2.84121C15.2572 2.57932 15.1338 2.33255 14.9878 2.10088C14.8417 1.86922 14.668 1.6577 14.4665 1.46632C14.2752 1.27495 14.0636 1.10372 13.832 0.952631C13.6003 0.801545 13.3535 0.67564 13.0917 0.574917C12.8499 0.484265 12.5805 0.406204 12.2833 0.340734C11.9862 0.275263 11.6312 0.232455 11.2182 0.212311C10.8052 0.192165 10.4325 0.179575 10.1002 0.174539C9.76777 0.169502 9.07781 0.166985 8.03028 0.166985C6.98275 0.166985 6.29279 0.169502 5.9604 0.174539C5.62801 0.179575 5.25533 0.192165 4.84236 0.212311C4.4294 0.232455 4.07434 0.272745 3.77721 0.333179C3.48007 0.393614 3.21064 0.474193 2.9689 0.574917C2.70702 0.67564 2.46024 0.799027 2.22858 0.945077C1.99691 1.09113 1.78539 1.26488 1.59402 1.46632C1.39257 1.6577 1.2163 1.86922 1.06522 2.10088C0.91413 2.33255 0.793261 2.57932 0.70261 2.84121C0.601886 3.08294 0.521307 3.35238 0.460872 3.64952C0.400438 3.94665 0.360148 4.3017 0.340004 4.71467C0.319859 5.12764 0.307268 5.50032 0.302232 5.83271C0.297196 6.1651 0.294678 6.85505 0.294678 7.90258C0.294678 8.95011 0.297196 9.64007 0.302232 9.97246C0.307268 10.3049 0.319859 10.6775 0.340004 11.0905C0.360148 11.5035 0.400438 11.8585 0.460872 12.1557C0.521307 12.4528 0.601886 12.7222 0.70261 12.964C0.793261 13.2258 0.91413 13.4726 1.06522 13.7043C1.2163 13.9359 1.39257 14.1475 1.59402 14.3388C1.78539 14.5403 1.99691 14.7166 2.22858 14.8676C2.46024 15.0187 2.70198 15.1396 2.95379 15.2303C3.2056 15.331 3.48007 15.4116 3.77721 15.472C4.07434 15.5324 4.4294 15.5727 4.84236 15.5929C5.25533 15.613 5.62549 15.6256 5.95285 15.6306C6.2802 15.6357 6.97268 15.6382 8.03028 15.6382C9.07781 15.6382 9.76777 15.6357 10.1002 15.6306C10.4325 15.6256 10.8052 15.613 11.2182 15.5929C11.6312 15.5727 11.9862 15.5324 12.2833 15.472C12.5805 15.4116 12.8499 15.331 13.0917 15.2303C13.6154 15.0288 14.0737 14.7317 14.4665 14.3388C14.8594 13.946 15.1565 13.4877 15.3579 12.964C15.4486 12.7222 15.5267 12.4528 15.5921 12.1557C15.6576 11.8585 15.7004 11.5035 15.7206 11.0905C15.7306 10.6775 15.7407 10.3049 15.7508 9.97246C15.7608 9.64007 15.7659 8.95011 15.7659 7.90258C15.7659 6.85505 15.7634 6.1651 15.7583 5.83271ZM14.3306 11.0301C14.3104 11.4128 14.2726 11.715 14.2172 11.9366C14.1618 12.1582 14.109 12.3344 14.0586 12.4654C13.9277 12.8078 13.7338 13.105 13.4769 13.3568C13.2201 13.6086 12.9255 13.8 12.5931 13.9309C12.4521 13.9913 12.2708 14.0467 12.0492 14.0971C11.8276 14.1475 11.5304 14.1827 11.1578 14.2029C10.7448 14.223 10.3797 14.2356 10.0624 14.2406C9.7451 14.2457 9.06773 14.2482 8.03028 14.2482C7.00289 14.2482 6.32804 14.2457 6.00573 14.2406C5.68341 14.2356 5.31577 14.223 4.9028 14.2029C4.53012 14.1827 4.23298 14.1475 4.01139 14.0971C3.7898 14.0467 3.6085 13.9913 3.46748 13.9309C3.30632 13.8705 3.1502 13.7924 2.99912 13.6967C2.84803 13.601 2.70702 13.4877 2.57608 13.3568C2.45521 13.2359 2.34441 13.0999 2.24369 12.9489C2.14296 12.7978 2.06238 12.6366 2.00195 12.4654C1.95159 12.3344 1.89871 12.1582 1.84331 11.9366C1.78791 11.715 1.75517 11.4128 1.7451 11.0301C1.72496 10.6272 1.71237 10.2646 1.70733 9.94224C1.70229 9.61993 1.69978 8.94004 1.69978 7.90258C1.69978 6.8752 1.70229 6.20035 1.70733 5.87803C1.71237 5.55572 1.72496 5.19311 1.7451 4.79021C1.75517 4.40746 1.78791 4.10529 1.84331 3.8837C1.89871 3.66211 1.95159 3.48584 2.00195 3.3549C2.06238 3.18367 2.14296 3.02251 2.24369 2.87142C2.34441 2.72034 2.46024 2.58436 2.59118 2.46349C2.71205 2.33255 2.84803 2.21924 2.99912 2.12355C3.1502 2.02786 3.30632 1.9498 3.46748 1.88936C3.6085 1.82893 3.7898 1.77353 4.01139 1.72317C4.23298 1.67281 4.53012 1.63755 4.9028 1.61741C5.31577 1.59726 5.68341 1.58467 6.00573 1.57964C6.32804 1.5746 7.00289 1.57208 8.03028 1.57208C9.06773 1.57208 9.74762 1.5746 10.0699 1.57964C10.3923 1.58467 10.7549 1.59726 11.1578 1.61741C11.5405 1.63755 11.8427 1.67281 12.0643 1.72317C12.2859 1.77353 12.4621 1.82893 12.5931 1.88936C12.7643 1.9498 12.9255 2.02786 13.0765 2.12355C13.2276 2.21924 13.3636 2.33255 13.4845 2.46349C13.6154 2.58436 13.7287 2.72034 13.8244 2.87142C13.9201 3.02251 13.9982 3.18367 14.0586 3.3549C14.109 3.48584 14.1618 3.66211 14.2172 3.8837C14.2726 4.10529 14.3104 4.40746 14.3306 4.79021C14.3507 5.19311 14.3633 5.55572 14.3683 5.87803C14.3734 6.20035 14.3759 6.8752 14.3759 7.90258C14.3759 8.94004 14.3734 9.61993 14.3683 9.94224C14.3633 10.2646 14.3507 10.6272 14.3306 11.0301ZM8.03028 3.92902C7.4763 3.92902 6.9626 4.03478 6.4892 4.2463C6.00573 4.44775 5.58268 4.72978 5.22008 5.09239C4.85747 5.45499 4.57545 5.87803 4.374 6.36151C4.16248 6.84498 4.05672 7.35868 4.05672 7.90258C4.05672 8.45657 4.16248 8.97026 4.374 9.44366C4.57545 9.92714 4.85747 10.3502 5.22008 10.7128C5.58268 11.0754 6.00573 11.3574 6.4892 11.5589C6.9626 11.7704 7.4763 11.8761 8.03028 11.8761C8.57419 11.8761 9.08788 11.7704 9.57135 11.5589C10.0548 11.3574 10.4779 11.0754 10.8405 10.7128C11.2031 10.3502 11.4851 9.92714 11.6866 9.44366C11.8981 8.97026 12.0038 8.45657 12.0038 7.90258C12.0038 7.35868 11.8981 6.84498 11.6866 6.36151C11.4851 5.87803 11.2031 5.45499 10.8405 5.09239C10.4779 4.72978 10.0548 4.44775 9.57135 4.2463C9.08788 4.03478 8.57419 3.92902 8.03028 3.92902ZM9.85842 9.73072C9.85842 9.73072 9.73251 9.85663 9.4807 10.1084C9.22889 10.3602 8.74542 10.4862 8.03028 10.4862C7.31514 10.4862 6.70576 10.2343 6.20214 9.73072C5.69852 9.2271 5.44671 8.61772 5.44671 7.90258C5.44671 7.18744 5.69852 6.57806 6.20214 6.07444C6.70576 5.57082 7.31514 5.31901 8.03028 5.31901C8.74542 5.31901 9.3548 5.57082 9.85842 6.07444C10.362 6.57806 10.6138 7.18744 10.6138 7.90258C10.6138 8.61772 10.362 9.2271 9.85842 9.73072ZM13.0917 3.77794C13.0917 4.02975 13.001 4.2463 12.8197 4.42761C12.6384 4.60891 12.4168 4.69956 12.1549 4.69956C11.9031 4.69956 11.6866 4.60891 11.5053 4.42761C11.324 4.2463 11.2333 4.02975 11.2333 3.77794C11.2333 3.51606 11.324 3.29446 11.5053 3.11316C11.6866 2.93186 11.9031 2.84121 12.1549 2.84121C12.4168 2.84121 12.6384 2.93186 12.8197 3.11316C13.001 3.29446 13.0917 3.51606 13.0917 3.77794Z" fill="white"/>
</svg>
