<svg width="58" height="44" viewBox="0 0 58 44" fill="none" xmlns="http://www.w3.org/2000/svg">
<path d="M45.6172 7.27469C45.5919 7.52781 45.5769 7.81656 45.5703 8.12969L41.9759 9.84625C41.4725 9.76375 38.9759 9.90906 35.2522 8.07156C34.3081 7.60562 33.3856 7.35812 32.4997 7.35812C31.6979 7.35889 30.9078 7.55007 30.1944 7.91594C29.2541 7.7125 27.8994 7.19125 27.1072 7.19312C25.3147 7.2025 21.2394 8.66219 20.1106 8.78687C19.0063 8.90781 17.8691 9.21156 16.7244 9.69531C14.6441 9.08969 12.0359 8.10062 10.6391 7.55406L0.875 0.4375V23.3219L8.05063 26.7362C8.15469 26.6144 8.27375 26.4269 8.40312 26.1944L8.62531 26.2975C8.73406 26.5788 8.85406 26.8587 8.98531 27.1375C8.19781 28.4631 8.10406 29.9566 8.73312 31.255C9.27219 32.3659 10.2762 33.1459 11.3947 33.3644C11.4556 34.0563 11.6881 34.7256 12.08 35.3059C12.7831 36.3438 13.9006 36.9634 15.0716 36.9634C15.1778 36.9634 15.2834 36.9578 15.3884 36.9466C15.5553 37.3975 15.8 37.8175 16.1178 38.1812C16.8247 38.9941 17.8147 39.46 18.8328 39.46C18.9078 39.46 18.9819 39.4575 19.055 39.4525C19.1844 39.9438 19.4047 40.4087 19.7122 40.8231C20.42 41.7794 21.5122 42.3484 22.6353 42.3484C23.3328 42.3484 23.9994 42.1347 24.5872 41.7344C25.7234 42.4637 26.7116 42.9766 27.5881 43.2916C28.0278 43.4706 28.4853 43.5625 28.9522 43.5625C30.0566 43.5625 31.1281 43.0469 31.8931 42.145C32.1772 41.8094 32.4078 41.4344 32.5766 41.0331C32.9071 41.1329 33.2504 41.184 33.5956 41.185C34.7694 41.185 35.8822 40.6103 36.6519 39.6053C37.0178 39.1292 37.2826 38.5834 37.43 38.0013C37.5106 38.0069 37.5906 38.0097 37.67 38.0097C39.0266 38.0097 40.325 37.2137 41.0553 35.9322C41.438 35.2655 41.6412 34.5109 41.645 33.7422C42.9856 33.5425 44.1659 32.5891 44.7406 31.1987C45.3069 29.8291 45.1531 28.3178 44.3628 27.0578L48.0144 25C48.1081 25.3206 48.2 25.6159 48.2891 25.8559L57.125 21.1544V1.97688L45.6172 7.27469ZM45.6162 10.1219C45.6744 11.1362 45.7803 12.2828 45.9172 13.48C45.1672 12.22 44.2203 11.6453 43.0447 11.3594L45.6162 10.1219ZM40.715 32.3931C38.7012 31.7003 34.5097 26.7728 34.5097 26.7728H34.5922C35.0187 26.7428 35.9403 26.2937 36.9744 26.5084C35.3506 25.1134 33.5647 26.2937 32.3487 25.5709C32.6309 26.4756 33.9875 26.7606 34.3353 26.7719L38.3516 31.4425C40.1703 33.5566 38.9038 36.1722 37.0803 36.5884C35.8569 35.9931 32.4022 31.8841 32.4022 31.8841C32.5203 31.8625 33.2206 31.6431 33.9341 31.7369C32.2869 30.505 30.4194 31.5738 29.3113 30.8003C29.9394 32.3519 32.0084 31.9544 32.225 31.9169L34.3737 34.66C36.0931 36.8538 34.7422 39.3878 32.9159 39.7309C31.2969 39.1619 30.2459 37.1369 30.2459 37.1369C30.4091 37.1106 30.9547 36.8678 31.7309 36.9803C30.35 35.77 28.7422 36.8678 27.7756 36.1787C28.3728 37.48 29.8616 37.1838 29.945 37.1744C31.4338 39.5191 29.8897 41.9641 28.0447 42.0372H28.0428L28.0409 42.0381C26.9328 41.8459 25.7722 40.96 24.4616 40.0506C24.9116 39.5519 25.3091 38.6753 25.3091 38.6753C26.6253 36.2922 24.9172 34.1847 23.1537 34.3656C24.5844 34.7566 25.6569 36.5828 24.5403 38.6106L24.05 39.4356C23.5175 40.4059 22.6859 40.9919 22.0747 40.9197C21.1334 40.8053 19.8069 39.4309 20.3647 37.4922C20.5803 37.2953 22.6597 34.1144 22.6597 34.1144C24.0894 31.8119 22.4844 29.6078 20.7162 29.6828C22.1244 30.1581 23.1116 32.0462 21.8975 34.0056L20.2072 36.6409C19.6306 37.5728 18.8844 38.1006 18.1728 38.0031C17.0684 37.8531 16.2941 36.5059 16.4712 35.1156C16.4619 35.1241 17.6881 33.7525 17.6881 33.7525C19.3175 31.6234 17.9225 29.2459 16.1572 29.1213C17.5138 29.7531 18.3219 31.7444 16.9372 33.5566L16.3391 34.2897C15.6828 35.1503 14.8925 35.5881 14.2006 35.4156C12.9931 35.1128 12.365 32.8534 12.9359 32.2375C13.385 31.7528 14.6459 30.2181 14.6459 30.2181C16.2744 28.0881 14.8813 25.7116 13.1141 25.585C14.4716 26.2188 15.2797 28.21 13.895 30.0231L13.2969 30.7544C12.6369 31.6225 11.8438 32.0584 11.1472 31.8813C9.69594 31.5138 8.97125 29.2731 10.3597 27.4544C10.3597 27.4544 9.88813 25.9562 9.67531 25.3159L8.97594 24.9916C10.6156 21.1713 13.0925 12.7394 13.2069 9.93813C14.4144 10.3684 17.6019 11.2853 17.9403 11.2872L17.9384 11.2891C21.3697 10.2109 24.9659 10.33 26.6066 9.69625C27.1381 9.49375 28.1956 9.48063 29.3169 10.1219C28.6166 10.7359 27.9547 11.4672 27.2675 12.1488C25.625 13.7791 19.5181 16.3216 20.6956 18.9953C21.7119 21.3025 24.5741 23.6631 29.375 19.9572L32.075 19.5859L36.2741 21.6578L41.6553 27.1844C43.5744 29.1512 42.4878 31.8212 40.715 32.3931ZM42.065 26.3041C41.4481 25.1509 39.5253 23.26 37.7103 21.7141L37.6991 21.7028C38.5363 21.7366 39.4147 20.3884 40.55 20.2844C39.7569 19.6788 38.4425 20.3781 38.0328 20.4888C35.7744 21.0963 32.2644 18.2547 32.2644 18.2547L28.9062 18.7384C28.9062 18.7384 24.9125 23.6125 21.5478 19.5972C19.7206 17.4166 26.3422 14.5684 27.9734 12.9475C30.0631 10.8709 31.925 8.33031 35.3628 10.0609C38.2184 11.5009 39.3434 11.4119 43.1741 12.0784C44.3159 12.2781 45.1072 12.8013 45.9556 13.8222C46.355 17.1822 47.0009 20.9088 47.6206 23.5019C47.3009 23.7709 44.5606 25.6141 42.065 26.3041Z" fill="#009448"/>
</svg>
