<svg width="48" height="52" viewBox="0 0 48 52" fill="none" xmlns="http://www.w3.org/2000/svg">
<path d="M21.5 1C10.455 1 1.5 9.8625 1.5 20.7975C1.5 24.53 2.5425 28.0225 4.3575 31M30.25 23.5V28.5M37.75 23.5V28.5M30.25 3.5V8.5M37.75 3.5V8.5M26.5 12.25H21.5M26.5 19.75H21.5M46.5 12.25H41.5M46.5 19.75H41.5M29 43.5L28.675 45.1175C28.325 46.885 28.1475 47.7675 27.75 48.4675C27.1375 49.5464 26.1457 50.359 24.9675 50.7475C24.205 51 23.3 51 21.5 51C19.7 51 18.795 51 18.0325 50.75C16.8538 50.3609 15.862 49.5473 15.25 48.4675C14.8525 47.7675 14.675 46.885 14.325 45.1175L14 43.5M36.5 8.5H31.5C29.1425 8.5 27.965 8.5 27.2325 9.2325C26.5 9.965 26.5 11.1425 26.5 13.5V18.5C26.5 20.8575 26.5 22.035 27.2325 22.7675C27.965 23.5 29.1425 23.5 31.5 23.5H36.5C38.8575 23.5 40.035 23.5 40.7675 22.7675C41.5 22.035 41.5 20.8575 41.5 18.5V13.5C41.5 11.1425 41.5 9.965 40.7675 9.2325C40.035 8.5 38.8575 8.5 36.5 8.5ZM9.9575 38.745C9.7275 38.055 9.6125 37.7075 9.625 37.4275C9.63914 37.138 9.73686 36.8588 9.90635 36.6236C10.0758 36.3885 10.3098 36.2075 10.58 36.1025C10.84 36 11.205 36 11.93 36H31.07C31.7975 36 32.16 36 32.42 36.1C32.6906 36.2051 32.9248 36.3865 33.0943 36.6222C33.2638 36.8578 33.3613 37.1375 33.375 37.4275C33.3875 37.7075 33.2725 38.0525 33.0425 38.745C32.6175 40.0225 32.405 40.6625 32.0775 41.18C31.3925 42.2615 30.3187 43.0391 29.0775 43.3525C28.4825 43.5 27.8125 43.5 26.47 43.5H16.53C15.1875 43.5 14.515 43.5 13.9225 43.35C12.6817 43.0372 11.608 42.2606 10.9225 41.18C10.595 40.6625 10.3825 40.0225 9.9575 38.745Z" stroke="#009448" stroke-width="2" stroke-linecap="round" stroke-linejoin="round"/>
</svg>
