<svg width="19" height="20" viewBox="0 0 19 20" fill="none" xmlns="http://www.w3.org/2000/svg">
<path d="M3.83706 9.75433C3.71864 9.21673 3.59995 8.67996 3.56258 8.12788C3.29717 4.20539 6.15211 0.6505 10.0648 0.0839361C15.2859 -0.672302 19.6652 3.79352 18.7755 8.96748C18.1856 12.3991 15.1895 15.0472 11.6952 15.2481C11.7098 15.7982 11.7194 16.2997 11.4523 16.7966C11.1061 17.4413 10.4602 17.8543 9.73018 17.9259L5.75097 17.9306C4.9432 18.9904 3.80601 19.8093 2.446 19.9724C2.19735 20.0022 1.91793 20.0514 1.73412 19.8399C1.43986 19.5007 1.76544 19.1853 1.90968 18.865C2.06464 18.5212 2.21273 18.1549 2.27263 17.78C1.53053 17.4725 0.995864 16.7717 0.928001 15.9682C0.81398 14.6192 1.00576 13.1272 0.924704 11.7631C0.942288 10.7959 1.93579 9.75405 2.91637 9.75405H3.83678L3.83706 9.75433ZM10.7333 4.61617V1.00853C9.34443 1.45539 8.55562 2.91648 8.14982 4.21878C8.99055 4.45027 9.85986 4.57873 10.7333 4.61617ZM11.6949 1.00853V4.61617C12.4238 4.57955 13.1558 4.50084 13.8657 4.32947C13.9341 4.31308 14.2965 4.23108 14.3048 4.19145C13.8476 2.90282 13.1022 1.43735 11.6949 1.00853ZM7.24259 3.87742C7.43244 3.28763 7.69098 2.72161 8.00173 2.18621L8.42484 1.55514C7.7822 1.85715 7.175 2.24879 6.65215 2.72954C6.55736 2.81672 6.18178 3.17612 6.14551 3.2644C6.12628 3.31114 6.1642 3.30075 6.17903 3.31114C6.30597 3.40105 7.16868 3.92881 7.24232 3.87715L7.24259 3.87742ZM15.1845 3.87852C15.248 3.93345 16.2069 3.39313 16.3102 3.26358C15.7967 2.70084 15.2084 2.20397 14.5433 1.82408C14.4743 1.78472 14.0657 1.55596 14.0303 1.58302C14.5375 2.2764 14.948 3.05095 15.1845 3.87852ZM4.52394 7.15792H6.66699C6.69776 6.37271 6.79887 5.59105 6.97141 4.82498C6.47714 4.60442 5.99935 4.3497 5.5548 4.04168C4.96299 4.97366 4.59894 6.05212 4.52394 7.15792ZM17.9043 7.15792C17.8526 6.05786 17.4779 4.9619 16.8745 4.04387C16.4355 4.35352 15.9623 4.61481 15.4593 4.80858C15.6423 5.57657 15.7549 6.36752 15.7615 7.15792H17.9046H17.9043ZM10.7333 5.54541C9.76617 5.55279 8.80922 5.36585 7.87589 5.13545C7.73879 5.80095 7.64757 6.47711 7.62862 7.15792H10.7333V5.54541ZM14.7996 7.15792C14.8087 6.82558 14.7804 6.49378 14.7411 6.1639C14.7117 5.91711 14.6559 5.42379 14.5784 5.20515C14.5688 5.17809 14.5721 5.1483 14.5353 5.13709C13.7723 5.33305 12.9915 5.48474 12.2027 5.54514C12.0392 5.55771 11.832 5.51234 11.6946 5.58641V7.15792H14.7993H14.7996ZM6.66699 8.11449H4.52394C4.56213 8.67313 4.67999 9.22411 4.85364 9.75433H6.83184L6.66699 8.11449ZM10.7333 8.11449H7.62862L7.79374 9.75405C8.77213 9.81691 9.86783 9.5488 10.7333 10.1096V8.11449ZM14.7996 8.11449H11.6949V14.2365C13.0189 13.8692 13.8273 12.4286 14.2507 11.2171C14.5941 10.2343 14.7859 9.15551 14.7996 8.11449ZM17.9043 8.11449H15.7612C15.7074 9.81746 15.3134 11.6175 14.4265 13.0865C14.3171 13.2677 14.1921 13.4347 14.0715 13.6079C14.0561 13.6301 13.9971 13.6615 14.0443 13.6902C16.2184 12.6915 17.7752 10.5097 17.9043 8.11449ZM4.23325 18.1563C4.39425 18.0175 4.56213 17.8671 4.70307 17.7081C5.00365 17.3681 5.06739 17.0038 5.58063 16.9685C6.91619 16.877 8.35643 17.0399 9.70298 16.9696C10.217 16.9035 10.6836 16.467 10.733 15.9444C10.8575 14.6279 10.6399 13.1256 10.7344 11.7896C10.6786 11.2056 10.2113 10.7565 9.62166 10.7101H3.02545C2.41275 10.7579 1.96106 11.1837 1.88523 11.7896C1.96601 13.1217 1.78083 14.5733 1.88523 15.8911C1.9171 16.2943 2.19927 16.7105 2.57321 16.874C2.89659 17.0153 3.33482 16.9636 3.31531 17.4741C3.29855 17.9092 3.07188 18.4701 2.93038 18.8825C3.41779 18.7598 3.85712 18.4807 4.23325 18.1563Z" fill="white"/>
</svg>
