<svg width="18" height="12" viewBox="0 0 18 12" fill="none" xmlns="http://www.w3.org/2000/svg">
<path d="M0.266846 6.37998C0.266846 6.2022 0.322401 6.05776 0.433512 5.94665C0.544623 5.83554 0.689068 5.77998 0.866846 5.77998H15.6002L11.6668 1.84665C11.5335 1.71331 11.4668 1.55776 11.4668 1.37998C11.4668 1.2022 11.5335 1.05776 11.6668 0.946647C11.8002 0.835535 11.9557 0.77998 12.1335 0.77998C12.3113 0.77998 12.4668 0.824425 12.6002 0.913313L17.6002 5.91331C17.6891 6.04665 17.7335 6.2022 17.7335 6.37998C17.7335 6.55776 17.6891 6.71331 17.6002 6.84665L12.6002 11.8466C12.4668 11.9355 12.3113 11.98 12.1335 11.98C11.9557 11.98 11.8002 11.9244 11.6668 11.8133C11.5335 11.7022 11.4668 11.5578 11.4668 11.38C11.4668 11.2022 11.5335 11.0466 11.6668 10.9133L15.6002 6.97998H0.866846C0.689068 6.97998 0.544623 6.92442 0.433512 6.81331C0.322401 6.7022 0.266846 6.55776 0.266846 6.37998Z" fill="#006AB2"/>
</svg>
