<svg width="25" height="26" viewBox="0 0 25 26" fill="none" xmlns="http://www.w3.org/2000/svg">
<path d="M24.9914 13.0001C22.3105 13.2332 20.3374 13.4829 19.0718 13.7492C17.5399 14.0821 16.366 14.5649 15.5501 15.1975C14.884 15.7135 14.3595 16.4044 13.9765 17.27C13.6102 18.1023 13.3104 19.2093 13.0773 20.591C12.8942 21.723 12.7027 23.3543 12.5029 25.4851C12.303 23.2545 12.1032 21.5731 11.9034 20.4412C11.6536 19.0428 11.3373 17.9275 10.9543 17.0952C10.538 16.2296 9.96351 15.547 9.23085 15.0476C8.43158 14.4817 7.26598 14.0405 5.73405 13.7242C4.51849 13.4745 2.61191 13.2332 0.0142822 13.0001C2.72846 12.7504 4.69333 12.5007 5.90889 12.251C7.45747 11.9181 8.6314 11.4436 9.43067 10.8277C10.0967 10.295 10.6296 9.59586 11.0292 8.73024C11.3955 7.8979 11.6953 6.7909 11.9284 5.40923C12.1115 4.2939 12.303 2.66253 12.5029 0.515106C12.686 2.49606 12.8609 4.01923 13.0274 5.08462C13.2438 6.3997 13.5019 7.46509 13.8017 8.28078C14.1347 9.1464 14.5718 9.84973 15.113 10.3907C15.6541 10.9318 16.3577 11.3687 17.2235 11.7017C18.0395 12.0013 19.1051 12.2593 20.4206 12.4757C21.4863 12.6422 23.0099 12.817 24.9914 13.0001Z" fill="#006AB2"/>
</svg>
