<svg width="9" height="6" viewBox="0 0 9 6" fill="none" xmlns="http://www.w3.org/2000/svg">
<path d="M8.50626 1.21358C8.54869 1.25072 8.56991 1.29846 8.56991 1.35682C8.56991 1.41517 8.54869 1.46557 8.50626 1.508L4.87772 5.13654C4.83528 5.17898 4.78621 5.2002 4.73051 5.2002C4.67481 5.2002 4.62574 5.17898 4.5833 5.13654L0.954772 1.508C0.912333 1.46557 0.891113 1.41517 0.891113 1.35682C0.891113 1.29846 0.912333 1.25072 0.954772 1.21358L1.28898 0.863463C1.33142 0.821024 1.38181 0.799805 1.44017 0.799805C1.49852 0.799805 1.54626 0.821024 1.5834 0.863463L4.74245 4.0066L7.88559 0.863463C7.91742 0.821024 7.96383 0.799805 8.02484 0.799805C8.08584 0.799805 8.13757 0.821024 8.18001 0.863463L8.50626 1.21358Z" fill="white"/>
</svg>
