<svg width="58" height="56" viewBox="0 0 58 56" fill="none" xmlns="http://www.w3.org/2000/svg">
<path d="M14.005 55.25C12.2717 55.25 10.7958 54.6433 9.5775 53.43C8.35917 52.2167 7.75 50.7417 7.75 49.005C7.75 47.2683 8.35833 45.7925 9.575 44.5775C10.7917 43.3625 12.2667 42.7533 14 42.75C14.4867 42.75 14.9967 42.8208 15.53 42.9625C16.0617 43.1025 16.5567 43.2925 17.015 43.5325L23.365 35.6325C22.455 34.6625 21.835 33.5892 21.505 32.4125C21.175 31.2358 21.1183 30.0442 21.335 28.8375L11.995 25.755C11.4467 26.7317 10.6908 27.5167 9.7275 28.11C8.76417 28.7033 7.68833 29 6.5 29C4.76333 29 3.28833 28.3933 2.075 27.18C0.858333 25.965 0.25 24.49 0.25 22.755C0.25 21.02 0.8575 19.5442 2.0725 18.3275C3.2875 17.1108 4.76083 16.5017 6.4925 16.5C8.22417 16.4983 9.7 17.1067 10.92 18.325C12.1383 19.5383 12.7475 21.0133 12.7475 22.75C12.7475 22.9617 12.7392 23.125 12.7225 23.24C12.7058 23.3567 12.6975 23.4717 12.6975 23.585L21.9925 26.8275C22.5375 25.7758 23.3158 24.8575 24.3275 24.0725C25.3392 23.2875 26.5275 22.7808 27.8925 22.5525V12.645C26.2992 12.345 25.0433 11.6033 24.125 10.42C23.2067 9.23667 22.7483 7.92333 22.75 6.48C22.75 4.76333 23.3575 3.29583 24.5725 2.0775C25.7875 0.859167 27.2617 0.25 28.995 0.25C30.7283 0.25 32.2042 0.858333 33.4225 2.075C34.6408 3.29167 35.25 4.76667 35.25 6.5C35.25 7.93 34.7883 9.23667 33.865 10.42C32.9417 11.6033 31.6883 12.345 30.105 12.645V22.55C31.4717 22.7783 32.6525 23.285 33.6475 24.07C34.6425 24.855 35.4283 25.7733 36.005 26.825L45.2975 23.585C45.2658 23.4367 45.25 23.3125 45.25 23.2125V22.75C45.25 21.0133 45.8575 19.5383 47.0725 18.325C48.2858 17.1083 49.76 16.5 51.495 16.5C53.23 16.5 54.7058 17.1075 55.9225 18.3225C57.1392 19.5375 57.7483 21.0117 57.75 22.745C57.7517 24.4783 57.1433 25.9542 55.925 27.1725C54.7133 28.3908 53.2383 29 51.5 29C50.3233 29 49.2483 28.7033 48.275 28.11C47.3017 27.5167 46.545 26.7317 46.005 25.755L36.6625 28.8375C36.8808 30.0442 36.825 31.2333 36.495 32.405C36.165 33.5767 35.545 34.6375 34.635 35.5875L40.985 43.4725C41.4433 43.2625 41.9392 43.09 42.4725 42.955C43.0058 42.82 43.5142 42.7517 43.9975 42.75C45.7342 42.75 47.2108 43.3575 48.4275 44.5725C49.6425 45.7858 50.25 47.26 50.25 48.995C50.25 50.73 49.6433 52.2058 48.43 53.4225C47.2167 54.6392 45.7417 55.2483 44.005 55.25C42.2683 55.2517 40.7925 54.6433 39.5775 53.425C38.3592 52.2133 37.75 50.7383 37.75 49C37.75 48.2567 37.8692 47.5408 38.1075 46.8525C38.3458 46.1658 38.7425 45.5258 39.2975 44.9325L32.9475 36.9375C31.8158 37.6708 30.5058 38.0375 29.0175 38.0375C27.5292 38.0375 26.2033 37.6708 25.04 36.9375L18.7 44.9325C19.2217 45.5258 19.61 46.1667 19.865 46.855C20.12 47.5417 20.2475 48.2567 20.2475 49C20.2475 50.7367 19.6408 52.2117 18.4275 53.425C17.2125 54.6417 15.74 55.25 14.005 55.25ZM6.5 26.5C7.52833 26.5 8.41083 26.1325 9.1475 25.3975C9.8825 24.6608 10.25 23.7783 10.25 22.75C10.25 21.7217 9.8825 20.8392 9.1475 20.1025C8.4125 19.3658 7.53 18.9983 6.5 19C5.47 19.0017 4.5875 19.3692 3.8525 20.1025C3.1175 20.8392 2.75 21.7217 2.75 22.75C2.75 23.7783 3.1175 24.6608 3.8525 25.3975C4.5875 26.1342 5.47 26.5017 6.5 26.5ZM14 52.75C15.0283 52.75 15.9108 52.3825 16.6475 51.6475C17.3825 50.9108 17.75 50.0283 17.75 49C17.75 47.9717 17.3825 47.0892 16.6475 46.3525C15.9108 45.6175 15.0283 45.25 14 45.25C12.9717 45.25 12.0892 45.6175 11.3525 46.3525C10.6175 47.0892 10.25 47.9717 10.25 49C10.25 50.0283 10.6175 50.9108 11.3525 51.6475C12.0892 52.3825 12.9717 52.75 14 52.75ZM29 10.25C30.0283 10.25 30.9108 9.8825 31.6475 9.1475C32.3825 8.41083 32.75 7.52833 32.75 6.5C32.75 5.47167 32.3825 4.58917 31.6475 3.8525C30.9125 3.11583 30.03 2.74833 29 2.75C27.97 2.75167 27.0875 3.11917 26.3525 3.8525C25.6175 4.58583 25.25 5.46833 25.25 6.5C25.25 7.53167 25.6175 8.41417 26.3525 9.1475C27.0875 9.88083 27.97 10.2483 29 10.25ZM29 35.54C30.4617 35.54 31.7083 35.0233 32.74 33.99C33.7717 32.9567 34.2883 31.71 34.29 30.25C34.2917 28.79 33.775 27.5433 32.74 26.51C31.705 25.4767 30.4583 24.96 29 24.96C27.5417 24.96 26.295 25.4767 25.26 26.51C24.225 27.5433 23.7083 28.79 23.71 30.25C23.7117 31.71 24.2283 32.9567 25.26 33.99C26.2917 35.0233 27.5383 35.54 29 35.54ZM44 52.75C45.0283 52.75 45.9108 52.3825 46.6475 51.6475C47.3825 50.9108 47.75 50.0283 47.75 49C47.75 47.9717 47.3825 47.0892 46.6475 46.3525C45.9108 45.6175 45.0283 45.25 44 45.25C42.9717 45.25 42.0892 45.6175 41.3525 46.3525C40.6175 47.0892 40.25 47.9717 40.25 49C40.25 50.0283 40.6175 50.9108 41.3525 51.6475C42.0892 52.3825 42.9717 52.75 44 52.75ZM51.5 26.5C52.5283 26.5 53.4108 26.1325 54.1475 25.3975C54.8825 24.6608 55.25 23.7783 55.25 22.75C55.25 21.7217 54.8825 20.8392 54.1475 20.1025C53.4125 19.3658 52.53 18.9983 51.5 19C50.47 19.0017 49.5875 19.3692 48.8525 20.1025C48.1175 20.8392 47.75 21.7217 47.75 22.75C47.75 23.7783 48.1175 24.6608 48.8525 25.3975C49.5875 26.1342 50.47 26.5017 51.5 26.5Z" fill="#009448"/>
</svg>
