<svg width="17" height="17" viewBox="0 0 17 17" fill="none" xmlns="http://www.w3.org/2000/svg">
<path d="M12.7334 10.8467C13.4089 9.95778 13.8178 8.97111 13.96 7.88667C14.1023 6.80222 13.9778 5.74444 13.5867 4.71333C13.1956 3.68222 12.5734 2.80222 11.72 2.07333C10.8667 1.34444 9.90671 0.864444 8.84004 0.633333C7.77338 0.402222 6.7156 0.446667 5.66671 0.766666C4.61782 1.08667 3.69338 1.63778 2.89338 2.42C2.09338 3.20222 1.54227 4.11778 1.24004 5.16667C0.937821 6.21556 0.902265 7.27333 1.13338 8.34C1.36449 9.40667 1.84449 10.3667 2.57338 11.22C3.30227 12.0733 4.18227 12.6956 5.21338 13.0867C6.24449 13.4778 7.30227 13.6022 8.38671 13.46C9.47115 13.3178 10.4578 12.9089 11.3467 12.2333L15.2934 16.2333C15.4712 16.4111 15.7023 16.5 15.9867 16.5C16.2712 16.5 16.5112 16.4022 16.7067 16.2067C16.9023 16.0111 17 15.7711 17 15.4867C17 15.2022 16.9112 14.9711 16.7334 14.7933L12.7334 10.8467ZM13 7.00667C13 8.00222 12.7512 8.91778 12.2534 9.75333C11.7556 10.5889 11.0889 11.2556 10.2534 11.7533C9.41782 12.2511 8.50227 12.5 7.50671 12.5C6.51115 12.5 5.58671 12.2511 4.73338 11.7533C3.88004 11.2556 3.21338 10.5889 2.73338 9.75333C2.25338 8.91778 2.01338 8.00222 2.01338 7.00667C2.01338 6.01111 2.25338 5.08667 2.73338 4.23333C3.21338 3.38 3.88004 2.71333 4.73338 2.23333C5.58671 1.75333 6.51115 1.51333 7.50671 1.51333C8.50227 1.51333 9.41782 1.75333 10.2534 2.23333C11.0889 2.71333 11.7556 3.38 12.2534 4.23333C12.7512 5.08667 13 6.01111 13 7.00667Z" fill="white"/>
</svg>
