<svg width="10" height="16" viewBox="0 0 10 16" fill="none" xmlns="http://www.w3.org/2000/svg">
<path d="M8.86782 0.363274H6.85838C6.29432 0.363274 5.78567 0.453925 5.33241 0.635228C4.86908 0.806459 4.47626 1.05827 4.15394 1.39066C3.83162 1.72305 3.58485 2.12594 3.41362 2.59935C3.24239 3.06268 3.15677 3.58644 3.15677 4.17064V5.92324H1.13222C1.04157 5.92324 0.966027 5.95345 0.905593 6.01389C0.845159 6.07432 0.814941 6.14986 0.814941 6.24052V8.77876C0.814941 8.86941 0.845159 8.94495 0.905593 9.00539C0.966027 9.06582 1.04157 9.09604 1.13222 9.09604H3.15677V15.5172C3.15677 15.6078 3.18699 15.6834 3.24742 15.7438C3.30786 15.8043 3.37837 15.8345 3.45895 15.8345H6.10295C6.18353 15.8345 6.25655 15.8043 6.32202 15.7438C6.38749 15.6834 6.42023 15.6078 6.42023 15.5172V9.09604H8.77717C8.85775 9.09604 8.93077 9.06582 8.99624 9.00539C9.06171 8.94495 9.09445 8.86941 9.09445 8.77876V6.24052C9.09445 6.20023 9.08438 6.15994 9.06423 6.11965C9.04409 6.07936 9.01891 6.0441 8.98869 6.01389C8.96854 5.98367 8.93833 5.96101 8.89804 5.9459C8.85775 5.93079 8.81746 5.92324 8.77717 5.92324H6.42023V4.44259C6.42023 4.07999 6.4857 3.80803 6.61664 3.62673C6.74758 3.44543 7.04472 3.35478 7.50805 3.35478H8.86782C8.95847 3.35478 9.03402 3.32456 9.09445 3.26412C9.15488 3.20369 9.1851 3.12815 9.1851 3.03749V0.680554C9.1851 0.589903 9.15488 0.514359 9.09445 0.453925C9.03402 0.393491 8.95847 0.363274 8.86782 0.363274Z" fill="white"/>
</svg>
