<svg width="38" height="38" viewBox="0 0 38 38" fill="none" xmlns="http://www.w3.org/2000/svg">
<path d="M18.6651 0.379883C14.9735 0.379883 11.3649 1.47457 8.29541 3.5255C5.22597 5.57644 2.83363 8.49151 1.42092 11.9021C0.00820903 15.3127 -0.36142 19.0656 0.358773 22.6862C1.07897 26.3069 2.85663 29.6327 5.46698 32.243C8.07733 34.8534 11.4031 36.631 15.0238 37.3512C18.6444 38.0714 22.3973 37.7018 25.8079 36.2891C29.2185 34.8764 32.1336 32.484 34.1845 29.4146C36.2354 26.3452 37.3301 22.7365 37.3301 19.0449C37.3247 14.0963 35.3565 9.35192 31.8573 5.85274C28.3581 2.35355 23.6137 0.385317 18.6651 0.379883ZM18.6651 36.2167C15.2689 36.2167 11.9489 35.2096 9.12499 33.3227C6.3011 31.4358 4.10015 28.754 2.80046 25.6162C1.50076 22.4785 1.1607 19.0258 1.82328 15.6948C2.48586 12.3638 4.12131 9.3041 6.52283 6.90259C8.92435 4.50107 11.9841 2.86561 15.3151 2.20303C18.6461 1.54046 22.0988 1.88051 25.2365 3.18021C28.3742 4.4799 31.0561 6.68085 32.943 9.50474C34.8298 12.3286 35.8369 15.6486 35.8369 19.0449C35.832 23.5976 34.0212 27.9624 30.802 31.1817C27.5827 34.401 23.2179 36.2117 18.6651 36.2167ZM21.8606 20.9991C23.0292 20.5961 24.0171 19.7918 24.6488 18.7293C25.2806 17.6667 25.5152 16.4147 25.3111 15.1955C25.107 13.9763 24.4773 12.8689 23.5339 12.0701C22.5905 11.2712 21.3945 10.8327 20.1583 10.8323H14.1855C13.9875 10.8323 13.7976 10.9109 13.6576 11.051C13.5176 11.191 13.4389 11.3809 13.4389 11.5789V26.5109C13.4389 26.7089 13.5176 26.8988 13.6576 27.0388C13.7976 27.1788 13.9875 27.2575 14.1855 27.2575C14.3835 27.2575 14.5734 27.1788 14.7135 27.0388C14.8535 26.8988 14.9321 26.7089 14.9321 26.5109V21.2847H20.2554L24.0164 26.9271C24.1263 27.0919 24.2972 27.2064 24.4914 27.2452C24.6857 27.2841 24.8874 27.2442 25.0523 27.1343C25.2171 27.0244 25.3316 26.8535 25.3704 26.6592C25.4093 26.465 25.3694 26.2632 25.2595 26.0984L21.8606 20.9991ZM14.9321 12.3255H20.1583C21.1484 12.3255 22.0979 12.7188 22.798 13.4189C23.498 14.1189 23.8913 15.0684 23.8913 16.0585C23.8913 17.0485 23.498 17.998 22.798 18.6981C22.0979 19.3982 21.1484 19.7915 20.1583 19.7915H14.9321V12.3255Z" fill="#006AB2"/>
</svg>
