<svg width="23" height="24" viewBox="0 0 23 24" fill="none" xmlns="http://www.w3.org/2000/svg">
<path d="M6.63385 16.7458C4.12483 14.2319 2.19529 11.2003 0.980186 7.86283C0.311686 6.03816 0.924185 4.03383 2.29852 2.6595L3.14902 1.81016C3.37767 1.58105 3.64926 1.39928 3.94825 1.27526C4.24724 1.15124 4.56775 1.0874 4.89144 1.0874C5.21512 1.0874 5.53563 1.15124 5.83462 1.27526C6.13361 1.39928 6.4052 1.58105 6.63385 1.81016L8.62535 3.80166C8.85447 4.03032 9.03623 4.30191 9.16026 4.60089C9.28428 4.89988 9.34811 5.22039 9.34811 5.54408C9.34811 5.86777 9.28428 6.18828 9.16026 6.48727C9.03623 6.78625 8.85447 7.05784 8.62535 7.2865L8.13535 7.7765C7.93922 7.97259 7.78363 8.2054 7.67748 8.46162C7.57133 8.71785 7.5167 8.99248 7.5167 9.26983C7.5167 9.54717 7.57133 9.8218 7.67748 10.078C7.78363 10.3343 7.93922 10.5671 8.13535 10.7632L12.6154 15.2443C12.8114 15.4405 13.0443 15.596 13.3005 15.7022C13.5567 15.8083 13.8313 15.863 14.1087 15.863C14.386 15.863 14.6607 15.8083 14.9169 15.7022C15.1731 15.596 15.4059 15.4405 15.602 15.2443L16.0932 14.7543C16.3218 14.5252 16.5934 14.3434 16.8924 14.2194C17.1914 14.0954 17.5119 14.0316 17.8356 14.0316C18.1593 14.0316 18.4798 14.0954 18.7788 14.2194C19.0778 14.3434 19.3494 14.5252 19.578 14.7543L21.5695 16.7458C21.7986 16.9745 21.9804 17.2461 22.1044 17.5451C22.2284 17.844 22.2923 18.1646 22.2923 18.4882C22.2923 18.8119 22.2284 19.1324 22.1044 19.4314C21.9804 19.7304 21.7986 20.002 21.5695 20.2307L20.7202 21.08C19.3459 22.4555 17.3415 23.068 15.5169 22.3995C12.1794 21.1844 9.14775 19.2548 6.63385 16.7458Z" stroke="white" stroke-width="0.75" stroke-linejoin="round"/>
</svg>
